<svg width="37" height="16" viewBox="0 0 37 16" fill="none" xmlns="http://www.w3.org/2000/svg">
  <path d="M30.3037 0.0117188L30.3027 0.0126953C34.5368 0.0126953 37.462 1.91275 36.8369 4.25684L36.4131 5.84473C35.7873 8.18872 31.8482 10.0889 27.6143 10.0889H27.1816L36.0752 15.9209H21.7959L14.6064 10.3711C14.3186 10.1865 13.984 10.0889 13.6426 10.0889H1.62402L2.75586 5.84375H23.8076C24.599 5.84375 25.3361 5.48816 25.4531 5.0498C25.57 4.61149 25.0232 4.25586 24.2314 4.25586H3.17969L4.31152 0.0117188H30.3037ZM11.6143 11.5537C12.0129 11.5539 12.3032 11.9335 12.2002 12.3203L11.2402 15.9199H0.0683594L1.23242 11.5537H11.6143Z" fill="#1B1B1F"/>
</svg>
