<svg width="163" height="16" viewBox="0 0 163 16" fill="none" xmlns="http://www.w3.org/2000/svg">
<g clip-path="url(#clip0_451_2741)">
<path d="M11.5566 11.5024C11.9535 11.5025 12.2424 11.8811 12.1396 12.2661L11.1846 15.8481H0.0673828L1.22656 11.5024H11.5566ZM30.1533 0.0180664V0.019043C34.3663 0.0191833 37.2765 1.9102 36.6543 4.24268L36.2324 5.82178C35.6099 8.15428 31.6907 10.0454 27.4775 10.0454H27.0469L35.8965 15.8481H21.6875L14.5332 10.3257C14.247 10.1423 13.9147 10.0454 13.5752 10.0454H1.61523L2.74219 5.8208H23.6904C24.4776 5.82071 25.2104 5.4677 25.3271 5.03174C25.4436 4.59555 24.8992 4.2417 24.1113 4.2417H3.16406L4.29102 0.0180664H30.1533Z" fill="#EBEFF2"/>
</g>
<path d="M113.897 15.9271L118.132 0.124207H129.313L125.052 15.9271H113.897Z" fill="#EBEFF2"/>
<path d="M71.7284 0.124207H107.931C112.785 0.124207 116.142 2.29324 115.419 4.9787L112.475 15.9271H101.32L102.844 10.2722L103.722 7.04445L104.057 5.805C104.264 5.00452 103.257 4.33316 101.785 4.33316H98.6089C98.5831 4.53973 98.5831 4.74631 98.5056 4.9787L95.5877 15.9271H84.4069L85.9304 10.2722L86.8083 7.04445L87.144 5.805C87.3506 5.00452 86.3436 4.33316 84.8717 4.33316H81.7731L78.6487 15.9271H67.4937L71.7284 0.124207Z" fill="#EBEFF2"/>
<path d="M145.926 2.73926L149.765 0.219727H162.734L150.971 7.93848L158.611 15.8135H145.642L143.047 13.1387L138.971 15.8135H126.002L138.002 7.93848L130.513 0.219727H143.482L145.926 2.73926Z" fill="#EBEFF2"/>
<path d="M70.4294 0.124146L69.319 4.33313H48.6296L48.2175 5.9054H48.2233L48.2224 5.90833H68.8796L67.7692 10.1427H47.0856L47.0603 10.2726C46.8284 11.0727 47.8351 11.7177 49.3063 11.7179H67.3308L66.194 15.9269H43.1608C38.3069 15.9267 34.95 13.7581 35.6726 11.0988L37.2995 4.97864C37.3359 4.84353 37.384 4.71053 37.4392 4.57825L37.4372 4.57922L38.6042 0.124146H70.4294Z" fill="#EBEFF2"/>
<defs>
<clipPath id="clip0_451_2741">
<rect width="36.7525" height="15.9208" fill="white" transform="translate(0 0.00634766)"/>
</clipPath>
</defs>
</svg>
