<svg xmlns="http://www.w3.org/2000/svg" aria-hidden="true">
    <symbol id="layout-left" viewBox="0 0 16 16" fill="none">
        <path d="M5.99961 14L5.99961 1.99998M14.3996 12L14.3996 3.99998C14.3996 2.67449 13.3251 1.59998 11.9996 1.59998L3.99961 1.59998C2.67413 1.59998 1.59961 2.67449 1.59961 3.99997L1.59961 12C1.59961 13.3255 2.67412 14.4 3.99961 14.4H11.9996C13.3251 14.4 14.3996 13.3255 14.3996 12Z" stroke="currentColor"/>
    </symbol>

    <symbol id="search" viewBox="0 0 16 16" fill="none">
        <path d="M11.285 11.36L13.6004 13.6M12.8537 7.62669C12.8537 10.5133 10.5137 12.8534 7.62706 12.8534C4.74045 12.8534 2.40039 10.5133 2.40039 7.62669C2.40039 4.74008 4.74045 2.40002 7.62706 2.40002C10.5137 2.40002 12.8537 4.74008 12.8537 7.62669Z" stroke="currentColor" stroke-linecap="round"/>
    </symbol>

    <symbol id="edit" viewBox="0 0 24 24" fill="none" stroke="currentColor" stroke-width="1.5" stroke-linecap="round" stroke-linejoin="round"
        xmlns="http://www.w3.org/2000/svg">
        <path d="M11 4H4a2 2 0 0 0-2 2v14a2 2 0 0 0 2 2h14a2 2 0 0 0 2-2v-7M18.5 2.5a2.121 2.121 0 1 1 3 3L12 15l-4 1 1-4 9.5-9.5Z" vector-effect="non-scaling-stroke"/>
    </symbol>

    <symbol id="menu" viewBox="0 0 24 24" fill="none" stroke="currentColor" stroke-width="1.5" stroke-linecap="round" stroke-linejoin="round"
        xmlns="http://www.w3.org/2000/svg">
        <path d="M3 12h18M3 6h18M3 18h18" vector-effect="non-scaling-stroke"/>
    </symbol>

    <symbol id="chevron-r" viewBox="0 0 24 24" fill="none" stroke="currentColor" stroke-width="1.5" stroke-linecap="round" stroke-linejoin="round"
        xmlns="http://www.w3.org/2000/svg">
        <path d="m9 18 6-6-6-6" vector-effect="non-scaling-stroke"/>
    </symbol>

    <symbol id="chevron-d" viewBox="0 0 24 24" fill="none" stroke="currentColor" stroke-width="1.5" stroke-linecap="round" stroke-linejoin="round"
        xmlns="http://www.w3.org/2000/svg">
        <path d="m6 9 6 6 6-6" vector-effect="non-scaling-stroke"/>
    </symbol>


    <symbol id="github" viewBox="0 0 24 24" fill="none"
        xmlns="http://www.w3.org/2000/svg">
        <path d="M12 0C5.374 0 0 5.373 0 12C0 17.302 3.438 21.8 8.207 23.387C8.806 23.498 9 23.126 9 22.81V20.576C5.662 21.302 4.967 19.16 4.967 19.16C4.421 17.773 3.634 17.404 3.634 17.404C2.545 16.659 3.717 16.675 3.717 16.675C4.922 16.759 5.556 17.912 5.556 17.912C6.626 19.746 8.363 19.216 9.048 18.909C9.155 18.134 9.466 17.604 9.81 17.305C7.145 17 4.343 15.971 4.343 11.374C4.343 10.063 4.812 8.993 5.579 8.153C5.455 7.85 5.044 6.629 5.696 4.977C5.696 4.977 6.704 4.655 8.997 6.207C9.954 5.941 10.98 5.808 12 5.803C13.02 5.808 14.047 5.941 15.006 6.207C17.297 4.655 18.303 4.977 18.303 4.977C18.956 6.63 18.545 7.851 18.421 8.153C19.191 8.993 19.656 10.064 19.656 11.374C19.656 15.983 16.849 16.998 14.177 17.295C14.607 17.667 15 18.397 15 19.517V22.81C15 23.129 15.192 23.504 15.801 23.386C20.566 21.797 24 17.3 24 12C24 5.373 18.627 0 12 0Z" fill="currentColor"/>
    </symbol>

    <symbol id="x" viewBox="0 0 300 271" xmlns="http://www.w3.org/2000/svg">
        <path d="m236 0h46l-101 115 118 156h-92.6l-72.5-94.8-83 94.8h-46l107-123-113-148h94.9l65.5 86.6zm-16.1 244h25.5l-165-218h-27.4z" fill="currentColor"/>
    </symbol>

    <symbol id="youtube" viewBox="0 0 40 40" fill="none" xmlns="http://www.w3.org/2000/svg">
        <path d="M17.5088 23.7468L24.0145 19.9999L17.5088 16.2529V23.7468Z" fill="currentColor"/>
        <path d="M20 0C8.95599 0 0 8.95599 0 20C0 31.044 8.95599 40 20 40C31.044 40 40 31.044 40 20C40 8.95599 31.044 0 20 0ZM32.4969 20.0204C32.4969 20.0204 32.4969 24.0765 31.9824 26.0324C31.694 27.103 30.8499 27.9471 29.7794 28.2352C27.8235 28.75 20 28.75 20 28.75C20 28.75 12.197 28.75 10.2206 28.2147C9.15009 27.9266 8.30597 27.0822 8.01758 26.0117C7.50275 24.0765 7.50275 20 7.50275 20C7.50275 20 7.50275 15.9442 8.01758 13.9883C8.30566 12.9178 9.17053 12.0529 10.2206 11.7648C12.1765 11.25 20 11.25 20 11.25C20 11.25 27.8235 11.25 29.7794 11.7853C30.8499 12.0734 31.694 12.9178 31.9824 13.9883C32.5177 15.9442 32.4969 20.0204 32.4969 20.0204Z" fill="currentColor"/>
    </symbol>

    <symbol id="discord" viewBox="0 0 40 40" fill="none"
        xmlns="http://www.w3.org/2000/svg">
        <path fillRule="evenodd" clipRule="evenodd" fill="currentColor" d="M20 0C8.95105 0 0 8.95105 0 20C0 31.0256 8.95105 39.9767 20 40C31.049 40 40 31.049 40 20C40 8.95105 31.049 0 20 0ZM23.6829 10.2331C25.5244 10.5361 27.2959 11.0955 28.9976 11.8648C31.9113 16.1538 33.3565 21.0023 32.8437 26.5967C30.8857 28.0652 28.6712 29.1608 26.3169 29.8834C25.7808 29.1608 25.3146 28.4149 24.9183 27.6224C25.6875 27.3426 26.4335 26.993 27.1328 26.5734C27.0395 26.5035 26.9521 26.4335 26.8647 26.3636C26.7773 26.2937 26.6899 26.2238 26.5966 26.1538C22.4708 28.1119 17.6689 28.1119 13.543 26.1538C13.4498 26.2238 13.3624 26.2937 13.275 26.3636C13.1875 26.4335 13.1001 26.5035 13.0069 26.5734C13.7062 26.993 14.4288 27.3426 15.198 27.6224C14.8018 28.4149 14.3356 29.1608 13.7994 29.8834C11.4451 29.1841 9.25397 28.0652 7.27262 26.5967C6.82973 21.7715 7.73882 16.8997 11.0955 11.8881C12.7738 11.0955 14.5687 10.5361 16.4101 10.2331C16.6666 10.676 16.8997 11.1422 17.1094 11.6317C19.0675 11.3286 21.0488 11.3286 23.0069 11.6317C23.1934 11.1888 23.4498 10.6527 23.6829 10.2331ZM13.4498 21.0256C13.4498 22.4475 14.4754 23.613 15.7575 23.613C17.0628 23.613 18.0652 22.4475 18.0885 21.0256C18.0885 19.5804 17.0628 18.4149 15.7575 18.4149C14.4754 18.4149 13.4498 19.6037 13.4498 21.0256ZM22.0279 21.0256C22.0279 22.4475 23.0535 23.613 24.3356 23.613C25.6176 23.613 26.6199 22.4708 26.6432 21.0256C26.6666 19.5804 25.6409 18.4149 24.3356 18.4149C23.0535 18.4149 22.0279 19.6037 22.0279 21.0256Z"
    />
    </symbol>

    <symbol id="sun" viewBox="0 0 13 13" fill="none" stroke="currentColor" stroke-linecap="round"
        xmlns="http://www.w3.org/2000/svg">
        <path d="M6.01152 0.880105V0.5M6.01152 11.523V11.1429M11.1429 6.01152H11.523M0.5 6.01152H0.880105M9.64031 2.38311L9.90909 2.11433M2.11393 9.90874L2.38271 9.63997M9.64031 9.63994L9.90909 9.90871M2.11393 2.1143L2.38271 2.38308M9.04494 5.99074C9.04494 7.67015 7.68351 9.03158 6.0041 9.03158C4.32469 9.03158 2.96326 7.67015 2.96326 5.99074C2.96326 4.31133 4.32469 2.9499 6.0041 2.9499C7.68351 2.9499 9.04494 4.31133 9.04494 5.99074Z"/>
    </symbol>

    <symbol id="moon" viewBox="0 0 12 12" fill="none" stroke="currentColor" stroke-linejoin="round"
        xmlns="http://www.w3.org/2000/svg">
        <path d="M10.7992 7.31978C10.348 7.4566 9.86939 7.53017 9.37357 7.53017C6.66457 7.53017 4.46849 5.33409 4.46849 2.62509C4.46849 2.12948 4.54199 1.65104 4.67869 1.20007C2.66497 1.81076 1.19922 3.68159 1.19922 5.89477C1.19922 8.60377 3.3953 10.7998 6.1043 10.7998C8.31769 10.7998 10.1887 9.33381 10.7992 7.31978Z"/>
    </symbol>

    <symbol id="chevrons-up-down" viewBox="0 0 24 24" fill="none" stroke="currentColor" stroke-width="1.5" stroke-linecap="round" stroke-linejoin="round"
        xmlns="http://www.w3.org/2000/svg">
        <path d="m7.5 15 5 5 5-5m-10-6 5-5 5 5" vector-effect="non-scaling-stroke"/>
    </symbol>

    <symbol id="monitor" viewBox="0 0 24 24" fill="none" stroke="currentColor" stroke-width="1.5" stroke-linecap="round" stroke-linejoin="round"
        xmlns="http://www.w3.org/2000/svg">
        <path d="M8 21h8m-4-4v4M4 3h16a2 2 0 0 1 2 2v10a2 2 0 0 1-2 2H4a2 2 0 0 1-2-2V5a2 2 0 0 1 2-2Z" vector-effect="non-scaling-stroke"/>
    </symbol>

    <symbol id="copy" xmlns="http://www.w3.org/2000/svg" viewBox="0 0 24 24" fill="none" stroke="currentColor" stroke-width="1.5" stroke-linecap="round" stroke-linejoin="round">
        <rect x="9" y="9" width="13" height="13" rx="2" ry="2" vector-effect="non-scaling-stroke"/>
        <path d="M5 15H4a2 2 0 0 1-2-2V4a2 2 0 0 1 2-2h9a2 2 0 0 1 2 2v1" vector-effect="non-scaling-stroke"/>
    </symbol>

    <symbol id="check-mark" xmlns="http://www.w3.org/2000/svg" viewBox="0 0 24 24" fill="none" stroke="currentColor" stroke-width="1.5" stroke-linecap="round" stroke-linejoin="round">
        <polyline points="20 6 9 17 4 12" vector-effect="non-scaling-stroke"/>
    </symbol>

    <symbol id="x-mark" xmlns="http://www.w3.org/2000/svg" fill="none" viewBox="0 0 14 14" stroke="currentColor">
        <path d="M4 4l6 6m0-6l-6 6" />
    </symbol>

    <symbol id="circle-x" xmlns="http://www.w3.org/2000/svg" viewBox="0 0 16 16" fill="currentColor">
        <path clip-rule="evenodd" d="M8 14A6 6 0 1 0 8 2a6 6 0 0 0 0 12ZM6.28 5.22a.75.75 0 0 0-1.06 1.06L6.94 8 5.22 9.72a.75.75 0 1 0 1.06 1.06L8 9.06l1.72 1.72a.75.75 0 1 0 1.06-1.06L9.06 8l1.72-1.72a.75.75 0 0 0-1.06-1.06L8 6.94 6.28 5.22Z" fill-rule="evenodd" />
    </symbol>

    <symbol id="download" viewBox="0 0 32 32" fill="none"
        xmlns="http://www.w3.org/2000/svg">
        <path d="M16.0002 21.1668C15.8668 21.1668 15.7446 21.1446 15.6335 21.1002C15.5224 21.0557 15.4113 20.9779 15.3002 20.8668L10.2668 15.8335C10.0668 15.6335 9.97239 15.3946 9.9835 15.1168C9.99461 14.8391 10.1002 14.6002 10.3002 14.4002C10.5002 14.2002 10.7391 14.1002 11.0168 14.1002C11.2946 14.1002 11.5335 14.2002 11.7335 14.4002L15.0002 17.7002V6.3335C15.0002 6.04461 15.0946 5.80572 15.2835 5.61683C15.4724 5.42794 15.7113 5.3335 16.0002 5.3335C16.2891 5.3335 16.5279 5.42794 16.7168 5.61683C16.9057 5.80572 17.0002 6.04461 17.0002 6.3335V17.7002L20.3002 14.4002C20.5002 14.2002 20.7391 14.1002 21.0168 14.1002C21.2946 14.1002 21.5335 14.2002 21.7335 14.4002C21.9335 14.6002 22.0335 14.8391 22.0335 15.1168C22.0335 15.3946 21.9335 15.6335 21.7335 15.8335L16.7002 20.8668C16.5891 20.9779 16.4779 21.0557 16.3668 21.1002C16.2557 21.1446 16.1335 21.1668 16.0002 21.1668ZM7.3335 26.6668C6.80016 26.6668 6.3335 26.4668 5.9335 26.0668C5.5335 25.6668 5.3335 25.2002 5.3335 24.6668V20.9002C5.3335 20.6113 5.42794 20.3724 5.61683 20.1835C5.80572 19.9946 6.04461 19.9002 6.3335 19.9002C6.62239 19.9002 6.86127 19.9946 7.05016 20.1835C7.23905 20.3724 7.3335 20.6113 7.3335 20.9002V24.6668H24.6668V20.9002C24.6668 20.6113 24.7613 20.3724 24.9502 20.1835C25.1391 19.9946 25.3779 19.9002 25.6668 19.9002C25.9557 19.9002 26.1946 19.9946 26.3835 20.1835C26.5724 20.3724 26.6668 20.6113 26.6668 20.9002V24.6668C26.6668 25.2002 26.4668 25.6668 26.0668 26.0668C25.6668 26.4668 25.2002 26.6668 24.6668 26.6668H7.3335Z" fill="currentColor"/>
    </symbol>

    <symbol id="circle-minus" xmlns="http://www.w3.org/2000/svg" viewBox="0 0 24 24" fill="currentColor">
        <path d="M7 11v2h10v-2H7zm5-9C6.48 2 2 6.48 2 12s4.48 10 10 10 10-4.48 10-10S17.52 2 12 2zm0 18c-4.41 0-8-3.59-8-8s3.59-8 8-8 8 3.59 8 8-3.59 8-8 8z"></path>
    </symbol>

    <symbol id="circle-plus" xmlns="http://www.w3.org/2000/svg" viewBox="0 0 24 24" fill="currentColor">
        <path d="M13 7h-2v4H7v2h4v4h2v-4h4v-2h-4V7zm-1-5C6.48 2 2 6.48 2 12s4.48 10 10 10 10-4.48 10-10S17.52 2 12 2zm0 18c-4.41 0-8-3.59-8-8s3.59-8 8-8 8 3.59 8 8-3.59 8-8 8z"></path>
    </symbol>

    <symbol id="fast-forward" viewBox="0 0 24 24" xmlns="http://www.w3.org/2000/svg" fill="currentColor">
        <path d="M4.55 16.96l6.2-4.13c.59-.4.59-1.27 0-1.66l-6.2-4.13C3.89 6.59 3 7.07 3 7.87v8.26c0 .8.89 1.28 1.55.83zM13 7.87v8.26c0 .8.89 1.28 1.55.83l6.2-4.13c.59-.4.59-1.27 0-1.66l-6.2-4.13c-.66-.45-1.55.03-1.55.83z"></path>
    </symbol>
</svg>
