<svg width="1280" height="126" viewBox="0 0 1280 126" fill="none" xmlns="http://www.w3.org/2000/svg">
<g clip-path="url(#clip0_2006_1857)">
<path d="M237.117 0.1427L237.114 0.14563V0.14856C270.246 0.14856 293.134 15.0178 288.241 33.3605L284.926 45.7804C280.032 64.1231 249.21 78.9923 216.078 78.9923H212.688L282.282 124.627H170.547L114.289 81.2013C112.037 79.7572 109.423 78.9904 106.751 78.9904H12.7041L21.5664 45.7765H186.293C192.486 45.7765 198.251 42.9956 199.167 39.5656H199.17C200.085 36.1355 195.804 33.3546 189.608 33.3546H24.8799L33.7402 0.1427H237.117ZM90.877 90.4552C93.9979 90.4552 96.2711 93.4279 95.4629 96.4562L87.9492 124.623H0.53125L9.64648 90.4552H90.877Z" fill="#313539"/>
</g>
<path d="M895.661 125.247L928.962 0.976562H1016.89L983.381 125.247H895.661Z" fill="#313539"/>
<path d="M564.053 0.976929H848.738C886.912 0.976929 913.31 18.0336 907.624 39.1515L884.476 125.247H796.756L808.736 80.7779L815.64 55.3959L818.279 45.6492C819.904 39.3545 811.985 34.0751 800.41 34.0751H775.435C775.232 35.6995 775.232 37.3239 774.622 39.1515L751.677 125.247H663.754L675.734 80.7779L682.638 55.3959L685.278 45.6492C686.902 39.3545 678.983 34.0751 667.409 34.0751H643.042L618.472 125.247H530.752L564.053 0.976929Z" fill="#313539"/>
<path d="M1147.53 21.5391L1177.72 1.72852H1279.7L1187.2 62.4297L1247.28 124.354H1145.3L1124.89 103.32L1092.84 124.354H990.856L1085.22 62.4297L1026.33 1.72852H1128.31L1147.53 21.5391Z" fill="#313539"/>
<path d="M391.163 0.977295H553.832L545.1 34.075H403.165C403.076 34.075 402.987 34.0763 402.898 34.0769H382.405L379.167 46.4353H379.211L379.204 46.4617H541.649L532.918 79.7625H370.269L370.066 80.7781C368.239 87.0726 376.158 92.1491 387.732 92.1492H529.466L520.531 125.247H339.405C301.231 125.247 274.834 108.19 280.519 87.2751L293.311 39.1511C293.598 38.085 293.963 37.0298 294.398 35.9861L303.571 0.976318H391.163V0.977295Z" fill="#313539"/>
<defs>
<clipPath id="clip0_2006_1857">
<rect width="289.012" height="125.197" fill="white" transform="translate(0 0.0499268)"/>
</clipPath>
</defs>
</svg>
