<svg width="1482" height="782" viewBox="0 0 1482 782" fill="none" xmlns="http://www.w3.org/2000/svg">
<g clip-path="url(#clip0_143_77)">
<rect width="1482" height="782" fill="url(#paint0_linear_143_77)"/>
<path opacity="0.4" d="M-200.451 686.635C-121.123 487.972 156.99 130.33 634.813 289.069C1112.64 447.809 1422.67 167.837 1517.96 8.00827" stroke="white" stroke-width="3"/>
<path opacity="0.4" d="M-154.924 846.663C-75.5953 648 202.518 290.358 680.34 449.098C1158.16 607.838 1468.2 327.865 1563.49 168.037" stroke="white" stroke-width="3"/>
<path opacity="0.4" d="M-178.388 764.187C-99.0595 565.524 179.053 207.882 656.876 366.622C1134.7 525.362 1444.73 245.389 1540.02 85.5605" stroke="white" stroke-width="3"/>
<path opacity="0.4" d="M-191.696 717.41C-112.368 518.746 165.745 161.104 643.568 319.844C1121.39 478.584 1431.43 198.612 1526.72 38.783" stroke="white" stroke-width="3"/>
<path opacity="0.4" d="M-146.169 877.438C-66.84 678.775 211.273 321.133 689.096 479.873C1166.92 638.612 1476.95 358.64 1572.24 198.811" stroke="white" stroke-width="3"/>
<path opacity="0.4" d="M-169.633 794.962C-90.3042 596.298 187.809 238.656 665.631 397.396C1143.45 556.136 1453.49 276.164 1548.78 116.335" stroke="white" stroke-width="3"/>
<path opacity="0.4" d="M-195.899 702.638C-116.57 503.974 161.543 146.332 639.366 305.072C1117.19 463.812 1427.22 183.84 1522.51 24.0111" stroke="white" stroke-width="3"/>
<path opacity="0.4" d="M-150.371 862.666C-71.0426 664.003 207.07 306.361 684.893 465.101C1162.72 623.841 1472.75 343.868 1568.04 184.039" stroke="white" stroke-width="3"/>
<path opacity="0.4" d="M-173.835 780.19C-94.5068 581.527 183.606 223.885 661.429 382.624C1139.25 541.364 1449.29 261.392 1544.58 101.563" stroke="white" stroke-width="3"/>
<path opacity="0.4" d="M-187.143 733.413C-107.815 534.749 170.298 177.107 648.121 335.847C1125.94 494.587 1435.98 214.614 1531.27 54.7858" stroke="white" stroke-width="3"/>
<path opacity="0.4" d="M-141.616 893.441C-62.2873 694.777 215.826 337.135 693.648 495.875C1171.47 654.615 1481.51 374.643 1576.8 214.814" stroke="white" stroke-width="3"/>
<path opacity="0.4" d="M-165.08 810.965C-85.7514 612.301 192.361 254.659 670.184 413.399C1148.01 572.139 1458.04 292.167 1553.33 132.338" stroke="white" stroke-width="3"/>
<path opacity="0.4" d="M1726.84 73.5414C1556.23 -46.9921 1135.92 -184.552 819.539 229.474C503.162 643.5 96.9032 590.01 -66.6789 511.512" stroke="white" stroke-width="3"/>
<path opacity="0.4" d="M1772.74 234.874C1602.13 114.34 1181.81 -23.2201 865.437 390.806C549.06 804.832 142.802 751.343 -20.7805 672.844" stroke="white" stroke-width="3"/>
<path opacity="0.4" d="M1749.09 151.726C1578.48 31.1921 1158.16 -106.368 841.782 307.658C525.405 721.684 119.146 668.194 -44.4359 589.696" stroke="white" stroke-width="3"/>
<path opacity="0.4" d="M1735.67 104.567C1565.06 -15.9666 1144.74 -153.527 828.365 260.499C511.988 674.525 105.73 621.036 -57.8523 542.537" stroke="white" stroke-width="3"/>
<path opacity="0.4" d="M1781.57 265.899C1610.96 145.366 1190.64 7.80545 874.264 421.832C557.887 835.858 151.628 782.368 -11.9538 703.87" stroke="white" stroke-width="3"/>
<path opacity="0.4" d="M1757.91 182.751C1587.3 62.2176 1166.99 -75.3428 850.608 338.683C534.231 752.71 127.973 699.22 -35.6092 620.722" stroke="white" stroke-width="3"/>
<path opacity="0.4" d="M1731.43 89.6747C1560.82 -30.8588 1140.51 -168.419 824.129 245.607C507.752 659.633 101.493 606.143 -62.0891 527.645" stroke="white" stroke-width="3"/>
<path opacity="0.4" d="M1777.33 251.007C1606.72 130.474 1186.4 -7.08682 870.027 406.939C553.65 820.966 147.392 767.476 -16.1906 688.978" stroke="white" stroke-width="3"/>
<path opacity="0.4" d="M1753.68 167.859C1583.07 47.3253 1162.75 -90.2351 846.372 323.791C529.995 737.817 123.736 684.328 -39.846 605.829" stroke="white" stroke-width="3"/>
<path opacity="0.4" d="M1740.26 120.7C1569.65 0.166629 1149.33 -137.394 832.955 276.632C516.578 690.659 110.32 637.169 -53.2625 558.671" stroke="white" stroke-width="3"/>
<path opacity="0.4" d="M1786.16 282.033C1615.55 161.499 1195.23 23.9387 878.854 437.965C562.477 851.991 156.218 798.501 -7.36399 720.003" stroke="white" stroke-width="3"/>
<path opacity="0.4" d="M1762.5 198.884C1591.89 78.3508 1171.58 -59.2096 855.198 354.817C538.821 768.843 132.563 715.353 -31.0194 636.855" stroke="white" stroke-width="3"/>
</g>
<defs>
<linearGradient id="paint0_linear_143_77" x1="3.96631e-07" y1="557" x2="1512.5" y2="515.5" gradientUnits="userSpaceOnUse">
<stop stop-color="#14AEEA"/>
<stop offset="1" stop-color="#C74FFF"/>
</linearGradient>
<clipPath id="clip0_143_77">
<rect width="1482" height="782" fill="white"/>
</clipPath>
</defs>
</svg>
