<svg width="1419" height="126" viewBox="0 0 1419 126" fill="none" xmlns="http://www.w3.org/2000/svg">
<g clip-path="url(#clip0_2006_1997)">
<path d="M91.9123 90.5596H64.5739L55.4456 124.778H82.7741L91.9123 90.5596Z" fill="#FFDF5F"/>
<path d="M76.5114 45.8154L67.637 79.0773H94.9796L103.862 45.8154H76.5114Z" fill="#FFDF5F"/>
<path d="M107.185 33.3758L116.066 0.118164H88.7038L79.8308 33.3758H107.185Z" fill="#FFDF5F"/>
<path d="M64.5847 90.5596H37.2463L28.1194 124.778H55.4465L64.5847 90.5596Z" fill="#7CE95A"/>
<path d="M79.8571 33.3758L88.7386 0.118164H61.3762L52.5032 33.3758H79.8571Z" fill="#7CE95A"/>
<path d="M49.1838 45.8154L40.3093 79.0773H67.652L76.5348 45.8154H49.1838Z" fill="#7CE95A"/>
<path d="M37.2599 90.5596H9.92153L0.793213 124.778H28.1217L37.2599 90.5596Z" fill="#3EB6FF"/>
<path d="M21.8576 45.8154L12.9846 79.0773H40.3258L49.2087 45.8154H21.8576Z" fill="#3EB6FF"/>
<path d="M52.5309 33.3758L61.4138 0.118164H34.05L25.177 33.3758H52.5309Z" fill="#3EB6FF"/>
<path d="M118.93 90.5596H91.5919L82.4636 124.778H109.792L118.93 90.5596Z" fill="#FF65DB"/>
<path d="M103.531 45.8154L94.6562 79.0773H121.997L130.88 45.8154H103.531Z" fill="#FF65DB"/>
<path d="M134.203 33.3758L143.084 0.118164H115.722L106.847 33.3758H134.203Z" fill="#FF65DB"/>
<path d="M146.252 90.5596H118.914L109.787 124.778H137.114L146.252 90.5596Z" fill="#FF5148"/>
<path d="M130.852 45.8154L121.977 79.0773H149.32L158.203 45.8154H130.852Z" fill="#FF5148"/>
<path d="M161.525 33.3758L170.407 0.118164H143.044L134.171 33.3758H161.525Z" fill="#FF5148"/>
<path d="M374.061 0.118652L374.058 0.120605V0.123535C407.237 0.123535 430.158 15.0143 425.258 33.3833L421.938 45.8208C417.036 64.1898 386.17 79.0806 352.991 79.0806H349.597L419.29 124.78H307.396L251.057 81.2925C248.801 79.8463 246.183 79.0786 243.508 79.0786H149.326L158.201 45.8169H323.164C329.366 45.8168 335.14 43.0321 336.057 39.5972H336.06C336.976 36.1622 332.688 33.3774 326.483 33.3774H161.52L170.393 0.118652H374.061ZM227.611 90.5591C230.737 90.5591 233.014 93.5371 232.204 96.5698L224.679 124.776H137.137L146.265 90.5591H227.611Z" fill="#DEE2E6"/>
</g>
<path d="M1033.32 125.401L1066.67 0.953125H1154.72L1121.16 125.401H1033.32Z" fill="#DEE2E6"/>
<path d="M701.235 0.953125H986.327C1024.56 0.953125 1050.99 18.0342 1045.3 39.1823L1022.12 125.401H934.27L946.268 80.8683L953.181 55.45L955.825 45.6894C957.452 39.3856 949.521 34.0986 937.93 34.0986H912.919C912.715 35.7254 912.715 37.3522 912.105 39.1823L889.127 125.401H801.078L813.076 80.8683L819.989 55.45L822.633 45.6894C824.26 39.3856 816.329 34.0986 804.738 34.0986H780.337L755.732 125.401H667.886L701.235 0.953125Z" fill="#DEE2E6"/>
<path d="M1285.55 21.5449L1315.78 1.70605H1417.9L1325.27 62.4941L1385.44 124.508H1283.31L1262.87 103.442L1230.77 124.508H1128.65L1223.15 62.4941L1164.17 1.70605H1266.3L1285.55 21.5449Z" fill="#DEE2E6"/>
<path d="M682.255 34.0977H540.116C539.982 34.0977 539.849 34.0991 539.715 34.1006H519.327L516.084 46.4766H516.127L516.121 46.502H678.798L670.054 79.8516H507.173L506.97 80.8682C505.141 87.1717 513.071 92.2549 524.662 92.2549H666.597L657.65 125.4H476.265C438.036 125.4 411.601 108.32 417.294 87.375L430.105 39.1816C430.393 38.1136 430.757 37.0564 431.194 36.0107L440.379 0.953125H509.476C509.522 0.953076 509.568 0.952148 509.614 0.952148H691L682.255 34.0977Z" fill="#DEE2E6"/>
<defs>
<clipPath id="clip0_2006_1997">
<rect width="426.03" height="125.376" fill="white" transform="translate(0 0.0249023)"/>
</clipPath>
</defs>
</svg>
